<?xml version="1.0" encoding="UTF-8"?>
<svg width="52" height="67" viewBox="0 0 52 67" fill="none" xmlns="http://www.w3.org/2000/svg">
    <path
        d="M51.5625 2.84375V63.7812C51.5625 64.4029 51.3156 64.999 50.876 65.4385C50.4365 65.8781 49.8404 66.125 49.2188 66.125H2.34375C1.72215 66.125 1.12601 65.8781 0.686469 65.4385C0.246931 64.999 0 64.4029 0 63.7812V59.0938H4.6875V61.4375H46.875V5.1875H4.6875V12.2188H0V2.84375C0 2.22215 0.246931 1.62601 0.686469 1.18647C1.12601 0.74693 1.72215 0.5 2.34375 0.5H49.2188C49.8404 0.5 50.4365 0.74693 50.876 1.18647C51.3156 1.62601 51.5625 2.22215 51.5625 2.84375ZM17.0859 43.3672L20.4141 46.6953L32.1328 34.9766C32.3525 34.7587 32.5269 34.4995 32.6458 34.2139C32.7648 33.9282 32.8261 33.6219 32.8261 33.3125C32.8261 33.0031 32.7648 32.6968 32.6458 32.4111C32.5269 32.1255 32.3525 31.8663 32.1328 31.6484L20.4141 19.9297L17.0859 23.2578L24.8203 30.9688H0V35.6562H24.8203L17.0859 43.3672Z"
        fill="#B1CDC2" />
</svg>
